<?xml version="1.0" encoding="UTF-8" standalone="no" ?>
<!DOCTYPE svg PUBLIC "-//W3C//DTD SVG 1.1//EN" "http://www.w3.org/Graphics/SVG/1.1/DTD/svg11.dtd">
<svg xmlns="http://www.w3.org/2000/svg" xmlns:xlink="http://www.w3.org/1999/xlink" version="1.1" width="1080" height="1080" viewBox="0 0 1080 1080" xml:space="preserve">
<desc>Created with Fabric.js 5.2.4</desc>
<defs>
</defs>
<g transform="matrix(1 0 0 1 540 540)" id="38d599f7-083f-4bc7-8daa-50e40c3c149c"  >
<rect style="stroke: none; stroke-width: 1; stroke-dasharray: none; stroke-linecap: butt; stroke-dashoffset: 0; stroke-linejoin: miter; stroke-miterlimit: 4; fill: rgb(255,255,255); fill-rule: nonzero; opacity: 1; visibility: hidden;" vector-effect="non-scaling-stroke"  x="-540" y="-540" rx="0" ry="0" width="1080" height="1080" />
</g>
<g transform="matrix(1 0 0 1 540 540)" id="715a97df-a543-4863-ac9d-91df840f0e1a"  >
</g>
<g transform="matrix(1 0 0 1 540 540)"  >
<g style="" vector-effect="non-scaling-stroke"   >
		<g transform="matrix(1 0 0 1 -17.23 43.32)"  >
<path style="stroke: none; stroke-width: 1; stroke-dasharray: none; stroke-linecap: butt; stroke-dashoffset: 0; stroke-linejoin: miter; stroke-miterlimit: 4; fill: rgb(0,0,0); fill-rule: nonzero; opacity: 1;" vector-effect="non-scaling-stroke"  transform=" translate(-238.77, -299.32)" d="M 333.283 307.117 C 342.09000000000003 301.09700000000004 354.30600000000004 295.887 354.30600000000004 295.887 C 354.30600000000004 295.887 319.538 302.177 284.94900000000007 305.052 C 242.63400000000007 308.555 197.17400000000006 309.273 174.35400000000007 306.219 C 120.35800000000006 299.032 204.00100000000006 279.175 204.00100000000006 279.175 C 204.00100000000006 279.175 171.56800000000007 277.021 131.58800000000008 296.245 C 84.422 319.066 248.383 329.487 333.283 307.117 z" stroke-linecap="round" />
</g>
		<g transform="matrix(1 0 0 1 -1.1 -103.86)"  >
<path style="stroke: none; stroke-width: 1; stroke-dasharray: none; stroke-linecap: butt; stroke-dashoffset: 0; stroke-linejoin: miter; stroke-miterlimit: 4; fill: rgb(0,0,0); fill-rule: nonzero; opacity: 1;" vector-effect="non-scaling-stroke"  transform=" translate(-254.9, -152.14)" d="M 256.56 278.277 C 239.49 239.915 181.901 206.22299999999998 256.56 147.28699999999998 C 349.727 73.797 301.93 26 301.93 26 C 321.246 101.917 234.01 124.917 202.474 172.084 C 181.001 204.337 212.986 238.927 256.56 278.277 z" stroke-linecap="round" />
</g>
		<g transform="matrix(1 0 0 1 52.24 -48.79)"  >
<path style="stroke: none; stroke-width: 1; stroke-dasharray: none; stroke-linecap: butt; stroke-dashoffset: 0; stroke-linejoin: miter; stroke-miterlimit: 4; fill: rgb(0,0,0); fill-rule: nonzero; opacity: 1;" vector-effect="non-scaling-stroke"  transform=" translate(-308.24, -207.21)" d="M 359.518 119.975 C 359.60799999999995 119.975 202.11499999999998 159.326 277.313 245.933 C 299.50399999999996 271.449 271.473 294.449 271.473 294.449 C 271.473 294.449 327.805 265.341 301.93 228.954 C 277.762 194.993 259.254 178.103 359.518 119.975 z" stroke-linecap="round" />
</g>
		<g transform="matrix(1 0 0 1 132.79 64.07)"  >
<path style="stroke: none; stroke-width: 1; stroke-dasharray: none; stroke-linecap: butt; stroke-dashoffset: 0; stroke-linejoin: miter; stroke-miterlimit: 4; fill: rgb(0,0,0); fill-rule: nonzero; opacity: 1;" vector-effect="non-scaling-stroke"  transform=" translate(-388.79, -320.07)" d="M 354.039 362.999 C 353.59 364.077 352.24199999999996 365.24600000000004 352.24199999999996 365.33500000000004 C 467.508 335.05800000000005 425.10299999999995 258.511 370.02899999999994 277.91900000000004 C 365.17699999999996 279.62600000000003 362.66399999999993 283.57900000000006 362.66399999999993 283.57900000000006 C 362.66399999999993 283.57900000000006 365.7169999999999 282.32000000000005 372.5469999999999 280.88300000000004 C 400.396 275.044 440.377 318.168 354.039 362.999 L 354.039 362.999 z" stroke-linecap="round" />
</g>
		<g transform="matrix(1 0 0 1 -10.12 183.55)"  >
<path style="stroke: none; stroke-width: 1; stroke-dasharray: none; stroke-linecap: butt; stroke-dashoffset: 0; stroke-linejoin: miter; stroke-miterlimit: 4; fill: rgb(0,0,0); fill-rule: nonzero; opacity: 1;" vector-effect="non-scaling-stroke"  transform=" translate(-245.88, -439.55)" d="M 396.443 418.971 C 396.443 418.971 409.46999999999997 429.663 382.15799999999996 438.01800000000003 C 330.14 453.74 165.81899999999996 458.50100000000003 120.17899999999997 438.648 C 103.73799999999997 431.54900000000004 134.55299999999997 421.576 144.25699999999998 419.511 C 154.31799999999998 417.35400000000004 160.158 417.71200000000005 160.158 417.71200000000005 C 141.92 404.86500000000007 42.19499999999999 442.95900000000006 109.487 453.831 C 292.945 483.657 444.061 440.443 396.443 418.971 L 396.443 418.971 z" stroke-linecap="round" />
</g>
		<g transform="matrix(1 0 0 1 -4.97 144.77)"  >
<path style="stroke: none; stroke-width: 1; stroke-dasharray: none; stroke-linecap: butt; stroke-dashoffset: 0; stroke-linejoin: miter; stroke-miterlimit: 4; fill: rgb(0,0,0); fill-rule: nonzero; opacity: 1;" vector-effect="non-scaling-stroke"  transform=" translate(-251.03, -400.77)" d="M 195.557 381.776 C 124.85099999999998 401.54200000000003 238.59199999999998 442.331 328.61199999999997 403.78700000000003 C 313.88 398.03900000000004 303.27799999999996 391.39000000000004 303.27799999999996 391.39000000000004 C 263.11799999999994 399.02700000000004 244.52199999999996 399.56500000000005 208.04499999999996 395.43300000000005 C 177.948 392.019 195.557 381.776 195.557 381.776 L 195.557 381.776 z" stroke-linecap="round" />
</g>
		<g transform="matrix(1 0 0 1 30.52 208.21)"  >
<path style="stroke: none; stroke-width: 1; stroke-dasharray: none; stroke-linecap: butt; stroke-dashoffset: 0; stroke-linejoin: miter; stroke-miterlimit: 4; fill: rgb(0,0,0); fill-rule: nonzero; opacity: 1;" vector-effect="non-scaling-stroke"  transform=" translate(-286.52, -464.21)" d="M 357.092 469.103 C 286.387 482.399 199.15099999999998 480.874 147.48999999999998 472.336 C 147.48999999999998 472.248 158.09199999999998 481.052 212.536 484.55600000000004 C 295.37 489.85800000000006 422.587 481.59000000000003 425.552 442.42 C 425.553 442.42 419.803 457.245 357.092 469.103 L 357.092 469.103 z" stroke-linecap="round" />
</g>
		<g transform="matrix(1 0 0 1 -7.66 93.98)"  >
<path style="stroke: none; stroke-width: 1; stroke-dasharray: none; stroke-linecap: butt; stroke-dashoffset: 0; stroke-linejoin: miter; stroke-miterlimit: 4; fill: rgb(0,0,0); fill-rule: nonzero; opacity: 1;" vector-effect="non-scaling-stroke"  transform=" translate(-248.34, -349.98)" d="M 317.922 343.144 C 264.73400000000004 353.387 233.91900000000004 353.117 195.01800000000003 349.074 C 164.92000000000002 345.92900000000003 184.59600000000003 331.37600000000003 184.59600000000003 331.37600000000003 C 106.61400000000003 357.25000000000006 227.90000000000003 386.54 336.87700000000007 354.64500000000004 C 325.289 350.601 317.922 343.144 317.922 343.144 z" stroke-linecap="round" />
</g>
</g>
</g>
</svg>